<?xml version="1.0" encoding="UTF-8"?>
<svg id="Layer_2" xmlns="http://www.w3.org/2000/svg" viewBox="0 0 2005 536.15">
  <defs>
    <style>
      .cls-1 {
        fill: #111123;
        opacity: .7;
      }
    </style>
  </defs>
  <g id="Layer_2-2" data-name="Layer_2">
    <path class="cls-1" d="M0,172c5.06-2.62,12.66-5.94,22.29-7.87,31.89-6.37,59.46,7.95,81.3,19.67,18.47,9.91,68.42,39.85,86.54,48.52,1.6.76,5.4,2.53,10.49,2.62,10.94.19,19.12-7.53,20.98-9.18,41.57-36.79,99.52-49.3,148.17-76.05,71.56-39.35,139.46-51.55,232.09-68.19,62.45-11.22,117.03-15.56,159.97-17.05,5.65-3.51,10.03-6.75,13.11-9.18,3.68-2.9,5.46-4.61,5.25-6.56-.18-1.66-1.87-2.88-5.25-5.25-4.14-2.9-6.56-3.13-6.56-3.93,0-1.46,7.81-3.35,19.67-3.93,29.36-1.45,44.77,7,76.05,10.49,7.97.89,15.47,1.04,30.16,1.31,27.36.53,103.63,2,169.15-1.31,195.59-9.88,482.77-75.87,789.37-30.16,62.04,9.25,110.85,20.98,136.37,27.54,5.89,5.72,14.71,16.19,15.74,30.16,1.37,18.56-11.66,34.52-27.54,48.52-65.35,57.59-161.28,85.23-161.28,85.23-227.66,65.59-210.65,64.01-267.5,76.05-71.34,15.12-130.59,24.5-170.46,30.16-6.34,9.01-16.58,23.03-30.16,39.34-35.84,43.06-131.87,158.42-274.05,179.64-63.5,9.48-120.19-2.22-120.64-9.18-.34-5.3,32.2-3.9,69.5-27.54,19.71-12.49,24.9-21.93,64.25-60.32,17.61-17.18,32.39-30.72,41.96-39.34,24.48-18.36,48.95-36.72,73.43-55.07-121.45,7.12-218.71-1.95-285.85-11.8-85.31-12.51-206.2-38.62-336.99-66.87-72.87-15.74-111.9-24.84-170.46-23.6-83.71,1.76-151.72,23.46-196.69,41.96-3.23,28.64-10.01,51.31-15.74,66.87-11.62,31.56-21.7,58.94-48.52,76.05-19,12.12-38.84,14.26-51.14,14.42,21.81-18.87,26.07-34.32,26.23-44.58.31-20.14-15.08-27.19-18.36-55.07-2.54-21.57,5.9-23.83,3.93-41.96-1.96-18-11.87-30.46-48.52-66.87-17.41-17.3-37.55-36.74-60.32-57.7Z"/>
  </g>
</svg>